<?xml version="1.0" standalone="no"?>
<!DOCTYPE svg PUBLIC "-//W3C//DTD SVG 20010904//EN"
 "http://www.w3.org/TR/2001/REC-SVG-20010904/DTD/svg10.dtd">
<svg version="1.0" xmlns="http://www.w3.org/2000/svg"
 width="700.000000pt" height="700.000000pt" viewBox="0 0 700.000000 700.000000"
 preserveAspectRatio="xMidYMid meet">
<metadata>
Created by potrace 1.11, written by Peter Selinger 2001-2013
</metadata>
<g transform="translate(0.000000,700.000000) scale(0.100000,-0.100000)"
fill="#000000" stroke="none">
<path d="M1715 6541 c-16 -11 -228 -215 -470 -453 l-440 -435 -168 161 c-92
89 -180 166 -195 173 -36 16 -86 16 -125 -1 -18 -7 -93 -76 -169 -152 -112
-114 -138 -146 -143 -176 -17 -91 -22 -84 358 -465 193 -194 366 -360 383
-368 44 -21 107 -19 152 4 56 29 1258 1237 1277 1283 19 46 19 79 2 121 -16
37 -262 284 -310 310 -42 23 -114 22 -152 -2z"/>
<path d="M2800 6119 c-63 -12 -119 -55 -149 -114 -26 -49 -26 -50 -26 -320 0
-260 1 -272 22 -312 27 -50 86 -100 133 -113 22 -6 770 -10 2041 -10 l2007 0
53 28 c39 20 62 41 84 77 l30 48 3 263 c2 158 -1 279 -7 301 -14 50 -63 108
-114 136 l-42 22 -1995 1 c-1128 1 -2015 -2 -2040 -7z"/>
<path d="M1740 4379 c-27 -8 -139 -115 -485 -460 l-450 -449 -171 165 c-255
243 -259 243 -481 22 -118 -118 -143 -148 -148 -179 -17 -91 -22 -84 358 -466
194 -194 364 -360 379 -368 35 -18 121 -18 156 0 15 8 307 295 649 638 684
686 661 658 634 751 -10 33 -42 71 -150 180 -75 76 -147 145 -161 152 -38 20
-90 25 -130 14z"/>
<path d="M2778 3926 c-84 -30 -131 -85 -148 -175 -13 -69 -13 -432 0 -502 13
-69 54 -127 110 -159 l45 -25 2005 -3 c2250 -3 2074 -8 2148 72 22 24 45 61
51 82 14 52 14 516 0 568 -6 21 -29 58 -51 82 -74 80 101 74 -2132 74 -1634
-1 -1998 -3 -2028 -14z"/>
<path d="M745 1956 c-150 -35 -253 -94 -358 -205 -121 -128 -184 -301 -174
-471 17 -272 195 -501 457 -591 89 -30 258 -37 354 -15 184 44 346 170 432
340 218 427 -76 931 -556 952 -60 2 -117 -1 -155 -10z"/>
<path d="M2766 1735 c-47 -17 -91 -57 -119 -110 -21 -38 -22 -52 -22 -310 0
-270 0 -271 26 -320 15 -30 42 -62 68 -80 l43 -30 2039 -3 c2015 -2 2040 -2
2078 18 49 24 98 84 112 133 6 22 9 143 7 301 l-3 263 -30 48 c-22 36 -45 57
-84 77 l-53 28 -2012 0 c-1681 -1 -2017 -3 -2050 -15z"/>
</g>
</svg>
