<?xml version="1.0" standalone="no"?>
<!DOCTYPE svg PUBLIC "-//W3C//DTD SVG 20010904//EN"
 "http://www.w3.org/TR/2001/REC-SVG-20010904/DTD/svg10.dtd">
<svg version="1.0" xmlns="http://www.w3.org/2000/svg"
 width="240.000000pt" height="240.000000pt" viewBox="0 0 240.000000 240.000000"
 preserveAspectRatio="xMidYMid meet">
<metadata>
Created by potrace 1.11, written by Peter Selinger 2001-2013
</metadata>
<g transform="translate(0.000000,240.000000) scale(0.100000,-0.100000)"
fill="#000000" stroke="none">
<path d="M0 1200 l0 -1000 1200 0 1200 0 0 1000 0 1000 -1200 0 -1200 0 0
-1000z m2300 0 l0 -900 -1100 0 -1100 0 0 900 0 900 1100 0 1100 0 0 -900z"/>
<path d="M749 1769 l-124 -131 -78 72 -78 73 -35 -35 -36 -35 113 -107 113
-106 69 67 c38 38 109 112 159 166 l91 98 -35 35 -35 35 -124 -132z"/>
<path d="M1200 1650 l0 -50 400 0 400 0 0 50 0 50 -400 0 -400 0 0 -50z"/>
<path d="M749 1269 l-124 -131 -78 72 -78 73 -35 -35 -36 -35 113 -107 113
-106 69 67 c38 38 109 112 159 166 l91 98 -35 35 -35 35 -124 -132z"/>
<path d="M1200 1150 l0 -50 400 0 400 0 0 50 0 50 -400 0 -400 0 0 -50z"/>
<path d="M749 769 l-124 -131 -78 72 -78 73 -35 -35 -36 -35 113 -107 113
-106 69 67 c38 38 109 112 159 166 l91 98 -35 35 -35 35 -124 -132z"/>
<path d="M1200 650 l0 -50 400 0 400 0 0 50 0 50 -400 0 -400 0 0 -50z"/>
</g>
</svg>
